<svg width="143" height="146" viewBox="0 0 143 146" fill="none" xmlns="http://www.w3.org/2000/svg">
<path d="M16 1.5L30.0303 1.5C38.5906 1.50013 45.5303 8.43967 45.5303 17V39.0303C45.5301 43.1722 42.1722 46.5301 38.0303 46.5303H16C7.43967 46.5303 0.500125 39.5906 0.5 31.0303L0.5 17C0.500002 8.43959 7.43959 1.5 16 1.5Z" fill="#63C26C" stroke="black"/>
<path d="M16 50.3712H38.0303C42.1723 50.3714 45.5303 53.7292 45.5303 57.8712V87.9015C45.5301 92.0435 42.1722 95.4014 38.0303 95.4015H16C7.43967 95.4015 0.500125 88.4618 0.5 79.9015L0.5 65.8712C0.500002 57.3108 7.43959 50.3712 16 50.3712Z" fill="#E5CB4B" stroke="black"/>
<path d="M16 99.2425H38.0303C42.1723 99.2426 45.5303 102.6 45.5303 106.742V128.773C45.5301 137.333 38.5905 144.273 30.0303 144.273H16C7.43967 144.273 0.500125 137.333 0.5 128.773L0.5 114.742C0.500002 106.182 7.43959 99.2425 16 99.2425Z" fill="#63C26C" stroke="black"/>
<path d="M64.485 0.5L78.5153 0.5C87.0756 0.500126 94.0153 7.43967 94.0153 16V38.0303C94.0151 42.1722 90.6572 45.5301 86.5153 45.5303H56.485C52.3429 45.5303 48.9851 42.1723 48.985 38.0303V16C48.985 7.43959 55.9246 0.500001 64.485 0.5Z" fill="#E5CB4B" stroke="black"/>
<rect x="47.5" y="49.5" width="47" height="47" rx="15.5" fill="#63C26C" stroke="black"/>
<path d="M56.485 100.242H86.5153C90.6573 100.243 94.0153 103.6 94.0153 107.742V129.773C94.0151 138.333 87.0755 145.273 78.5153 145.273H64.485C55.9247 145.273 48.9851 138.333 48.985 129.773V107.742C48.985 103.73 52.1364 100.453 56.0993 100.252L56.485 100.242Z" fill="#E5CB4B" stroke="black"/>
<path d="M112.97 1.5L127 1.5C135.561 1.50013 142.5 8.43967 142.5 17V31.0303C142.5 39.5905 135.56 46.5301 127 46.5303H104.97C100.828 46.5303 97.4701 43.1723 97.47 39.0303V17C97.47 8.43959 104.41 1.5 112.97 1.5Z" fill="#63C26C" stroke="black"/>
<path d="M104.97 50.3712H127C135.561 50.3714 142.5 57.3109 142.5 65.8712V79.9015C142.5 88.4617 135.56 95.4014 127 95.4015H104.97C100.828 95.4015 97.4701 92.0435 97.47 87.9015V57.8712L97.4797 57.4855C97.6805 53.5226 100.957 50.3712 104.97 50.3712Z" fill="#E5CB4B" stroke="black"/>
<path d="M104.97 99.2425H127C135.561 99.2426 142.5 106.182 142.5 114.742V128.773C142.5 137.333 135.56 144.273 127 144.273H112.97C104.41 144.273 97.4701 137.333 97.47 128.773V106.742C97.47 102.6 100.828 99.2425 104.97 99.2425Z" fill="#63C26C" stroke="black"/>
</svg>
