<svg width="143" height="142" viewBox="0 0 143 142" fill="none" xmlns="http://www.w3.org/2000/svg">
<path d="M16 2.5L30.0303 2.5C37.486 2.50013 43.5303 8.54424 43.5303 16V38.0303C43.5301 41.0677 41.0677 43.5301 38.0303 43.5303H16C8.54423 43.5303 2.50012 37.486 2.5 30.0303L2.5 16C2.5 8.54416 8.54416 2.5 16 2.5Z" fill="#52A45A" stroke="black" stroke-width="5"/>
<path d="M16 50.3712H38.0303C41.0677 50.3714 43.5303 52.8338 43.5303 55.8712V85.9015C43.5301 88.9389 41.0677 91.4014 38.0303 91.4015H16C8.54423 91.4015 2.50012 85.3573 2.5 77.9015L2.5 63.8712C2.5 56.4154 8.54416 50.3712 16 50.3712Z" fill="#CAB342" stroke="black" stroke-width="5"/>
<path d="M16 98.2425H38.0303C41.0677 98.2426 43.5303 100.705 43.5303 103.742V125.773C43.5301 133.228 37.4859 139.273 30.0303 139.273H16C8.54423 139.273 2.50012 133.229 2.5 125.773L2.5 111.742C2.5 104.287 8.54416 98.2425 16 98.2425Z" fill="#52A45A" stroke="black" stroke-width="5"/>
<path d="M64.485 2.5L78.5153 2.5C85.971 2.50013 92.0153 8.54424 92.0153 16V38.0303C92.0151 41.0677 89.5526 43.5301 86.5153 43.5303H56.485C53.4475 43.5303 50.9851 41.0677 50.985 38.0303V16C50.985 8.54416 57.0291 2.5 64.485 2.5Z" fill="#CAB342" stroke="black" stroke-width="5"/>
<rect x="49.7575" y="49.7575" width="42.8712" height="42.8712" rx="21.4356" fill="#52A45A" stroke="black" stroke-width="5"/>
<path d="M56.485 98.2425H86.5153C89.5527 98.2426 92.0153 100.705 92.0153 103.742V125.773C92.0151 133.228 85.9709 139.273 78.5153 139.273H64.485C57.0292 139.273 50.9851 133.229 50.985 125.773V103.742C50.985 100.705 53.4474 98.2425 56.485 98.2425Z" fill="#CAB342" stroke="black" stroke-width="5"/>
<path d="M112.97 2.5L127 2.5C134.456 2.50013 140.5 8.54424 140.5 16V30.0303C140.5 37.4859 134.456 43.5301 127 43.5303H104.97C101.932 43.5303 99.4701 41.0677 99.47 38.0303V16C99.47 8.54416 105.514 2.5 112.97 2.5Z" fill="#52A45A" stroke="black" stroke-width="5"/>
<path d="M104.97 50.3712H127C134.456 50.3714 140.5 56.4155 140.5 63.8712V77.9015C140.5 85.3572 134.456 91.4014 127 91.4015H104.97C101.932 91.4015 99.4701 88.939 99.47 85.9015V55.8712C99.47 52.8337 101.932 50.3712 104.97 50.3712Z" fill="#CAB342" stroke="black" stroke-width="5"/>
<path d="M104.97 98.2425H127C134.456 98.2426 140.5 104.287 140.5 111.742V125.773C140.5 133.228 134.456 139.273 127 139.273H112.97C105.514 139.273 99.4701 133.229 99.47 125.773V103.742C99.47 100.705 101.932 98.2425 104.97 98.2425Z" fill="#52A45A" stroke="black" stroke-width="5"/>
</svg>
