<svg width="143" height="142" viewBox="0 0 143 142" fill="none" xmlns="http://www.w3.org/2000/svg">
<path d="M16 1.5L30.0303 1.5C38.0383 1.50013 44.5303 7.99195 44.5303 16V38.0303C44.5301 41.6199 41.6199 44.5301 38.0303 44.5303H16C7.99195 44.5303 1.50012 38.0383 1.5 30.0303L1.5 16C1.5 7.99187 7.99187 1.5 16 1.5Z" fill="#63C26C" stroke="black" stroke-width="3"/>
<path d="M16 49.3712H38.0303C41.62 49.3714 44.5303 52.2815 44.5303 55.8712V85.9015C44.5301 89.4912 41.6199 92.4014 38.0303 92.4015H16C7.99195 92.4015 1.50012 85.9095 1.5 77.9015L1.5 63.8712C1.5 55.8631 7.99187 49.3712 16 49.3712Z" fill="#E5CB4B" stroke="black" stroke-width="3"/>
<path d="M16 97.2425H38.0303C41.62 97.2426 44.5303 100.153 44.5303 103.742V125.773C44.5301 133.781 38.0382 140.273 30.0303 140.273H16C7.99195 140.273 1.50012 133.781 1.5 125.773L1.5 111.742C1.5 103.734 7.99187 97.2425 16 97.2425Z" fill="#63C26C" stroke="black" stroke-width="3"/>
<path d="M64.485 1.5L78.5153 1.5C86.5233 1.50013 93.0153 7.99195 93.0153 16V38.0303C93.0151 41.6199 90.1049 44.5301 86.5153 44.5303H56.485C52.8952 44.5303 49.9851 41.62 49.985 38.0303V16C49.985 7.99187 56.4769 1.5 64.485 1.5Z" fill="#E5CB4B" stroke="black" stroke-width="3"/>
<rect x="48.7575" y="48.7575" width="44.8712" height="44.8712" rx="22.4356" fill="#63C26C" stroke="black" stroke-width="3"/>
<path d="M56.485 97.2425H86.5153C90.105 97.2426 93.0153 100.153 93.0153 103.742V125.773C93.0151 133.781 86.5232 140.273 78.5153 140.273H64.485C56.4769 140.273 49.9851 133.781 49.985 125.773V103.742C49.985 100.153 52.8951 97.2425 56.485 97.2425Z" fill="#E5CB4B" stroke="black" stroke-width="3"/>
<path d="M112.97 1.5L127 1.5C135.008 1.50013 141.5 7.99195 141.5 16V30.0303C141.5 38.0382 135.008 44.5301 127 44.5303H104.97C101.38 44.5303 98.4701 41.62 98.47 38.0303V16C98.47 7.99187 104.962 1.5 112.97 1.5Z" fill="#63C26C" stroke="black" stroke-width="3"/>
<path d="M104.97 49.3712H127C135.008 49.3714 141.5 55.8632 141.5 63.8712V77.9015C141.5 85.9095 135.008 92.4014 127 92.4015H104.97C101.38 92.4015 98.4701 89.4913 98.47 85.9015V55.8712C98.47 52.2814 101.38 49.3712 104.97 49.3712Z" fill="#E5CB4B" stroke="black" stroke-width="3"/>
<path d="M104.97 97.2425H127C135.008 97.2426 141.5 103.734 141.5 111.742V125.773C141.5 133.781 135.008 140.273 127 140.273H112.97C104.962 140.273 98.4701 133.781 98.47 125.773V103.742C98.47 100.153 101.38 97.2425 104.97 97.2425Z" fill="#63C26C" stroke="black" stroke-width="3"/>
</svg>
